<svg xmlns="http://www.w3.org/2000/svg" width="11" height="11" viewBox="0 0 11 11" fill="none">
  <path d="M0.0687909 5.84415C0.112437 5.95668 0.177883 6.05948 0.261372 6.14667L4.84661 10.7304C4.93211 10.8159 5.03362 10.8837 5.14534 10.9299C5.25705 10.9762 5.37679 11 5.49771 11C5.74192 11 5.97613 10.903 6.14882 10.7304C6.23432 10.6449 6.30215 10.5434 6.34842 10.4318C6.3947 10.3201 6.41851 10.2004 6.41851 10.0795C6.41851 9.83537 6.3215 9.60124 6.14882 9.42862L3.12256 6.41253H10.083C10.3262 6.41253 10.5594 6.31594 10.7314 6.14402C10.9034 5.9721 11 5.73892 11 5.49578C11 5.25265 10.9034 5.01947 10.7314 4.84755C10.5594 4.67562 10.3262 4.57904 10.083 4.57904H3.12256L6.14882 1.56295C6.23477 1.47772 6.30299 1.37633 6.34955 1.26462C6.39611 1.15291 6.42008 1.03308 6.42008 0.91206C6.42008 0.791039 6.39611 0.671215 6.34955 0.559502C6.30299 0.447788 6.23477 0.346396 6.14882 0.261172C6.06357 0.175247 5.96214 0.107045 5.85039 0.0605035C5.73864 0.0139615 5.61877 -0.00999989 5.49771 -0.00999989C5.37665 -0.00999989 5.25679 0.0139615 5.14504 0.0605035C5.03329 0.107045 4.93186 0.175247 4.84661 0.261172L0.261372 4.84489C0.177883 4.93208 0.112437 5.03489 0.0687909 5.14742C-0.0229304 5.37061 -0.0229304 5.62095 0.0687909 5.84415Z" fill="white"/>
</svg>